<mxfile host="Electron" agent="Mozilla/5.0 (Macintosh; Intel Mac OS X 10_15_7) AppleWebKit/537.36 (KHTML, like Gecko) draw.io/24.7.8 Chrome/128.0.6613.36 Electron/32.0.1 Safari/537.36" version="24.7.8">
  <diagram name="Seite-1" id="Yu5WHI0yvBldvcSVoJ3o">
    <mxGraphModel dx="954" dy="618" grid="1" gridSize="10" guides="1" tooltips="1" connect="1" arrows="1" fold="1" page="1" pageScale="1" pageWidth="5000" pageHeight="1920" math="0" shadow="0">
      <root>
        <mxCell id="0" />
        <mxCell id="1" parent="0" />
        <mxCell id="hXxf3Bxxnw7Oz5GumfO5-1" value="" style="strokeWidth=1;shadow=0;dashed=0;align=center;html=1;shape=mxgraph.mockup.containers.browserWindow;rSize=0;strokeColor=#666666;strokeColor2=#008cff;strokeColor3=#c4c4c4;mainText=,;recursiveResize=0;" parent="1" vertex="1">
          <mxGeometry x="330" y="130" width="950" height="840" as="geometry" />
        </mxCell>
        <mxCell id="hXxf3Bxxnw7Oz5GumfO5-2" value="blog-post&lt;span style=&quot;background-color: initial;&quot;&gt;.hmtl&lt;/span&gt;" style="strokeWidth=1;shadow=0;dashed=0;align=center;html=1;shape=mxgraph.mockup.containers.anchor;fontSize=17;fontColor=#666666;align=left;whiteSpace=wrap;" parent="hXxf3Bxxnw7Oz5GumfO5-1" vertex="1">
          <mxGeometry x="60" y="12" width="110" height="26" as="geometry" />
        </mxCell>
        <mxCell id="hXxf3Bxxnw7Oz5GumfO5-3" value="udactiy-wd-course.shaher/blog-post.html" style="strokeWidth=1;shadow=0;dashed=0;align=center;html=1;shape=mxgraph.mockup.containers.anchor;rSize=0;fontSize=17;fontColor=#666666;align=left;" parent="hXxf3Bxxnw7Oz5GumfO5-1" vertex="1">
          <mxGeometry x="130" y="60" width="250" height="26" as="geometry" />
        </mxCell>
        <mxCell id="hXxf3Bxxnw7Oz5GumfO5-4" value="subscribe" style="html=1;shadow=0;dashed=0;shape=mxgraph.bootstrap.rrect;rSize=5;strokeColor=none;strokeWidth=1;fillColor=none;fontColor=#0085FC;whiteSpace=wrap;align=center;verticalAlign=middle;spacingLeft=0;fontStyle=0;fontSize=16;spacing=5;" parent="hXxf3Bxxnw7Oz5GumfO5-1" vertex="1">
          <mxGeometry x="60" y="160" width="60" height="40" as="geometry" />
        </mxCell>
        <mxCell id="hXxf3Bxxnw7Oz5GumfO5-6" value="&lt;font style=&quot;font-size: 25px;&quot;&gt;Blog website title&lt;/font&gt;" style="text;html=1;align=center;verticalAlign=middle;whiteSpace=wrap;rounded=0;strokeWidth=5;" parent="hXxf3Bxxnw7Oz5GumfO5-1" vertex="1">
          <mxGeometry x="345" y="160" width="260" height="40" as="geometry" />
        </mxCell>
        <mxCell id="hXxf3Bxxnw7Oz5GumfO5-7" value="" style="html=1;verticalLabelPosition=bottom;align=center;labelBackgroundColor=#ffffff;verticalAlign=top;strokeWidth=2;strokeColor=#0080F0;shadow=0;dashed=0;shape=mxgraph.ios7.icons.looking_glass;" parent="hXxf3Bxxnw7Oz5GumfO5-1" vertex="1">
          <mxGeometry x="820" y="170" width="30" height="30" as="geometry" />
        </mxCell>
        <mxCell id="hXxf3Bxxnw7Oz5GumfO5-9" value="&lt;span style=&quot;color: rgba(0, 0, 0, 0); font-family: monospace; font-size: 0px; text-align: start; text-wrap: nowrap;&quot;&gt;%3CmxGraphModel%3E%3Croot%3E%3CmxCell%20id%3D%220%22%2F%3E%3CmxCell%20id%3D%221%22%20parent%3D%220%22%2F%3E%3CmxCell%20id%3D%222%22%20value%3D%22%22%20style%3D%22strokeWidth%3D1%3Bshadow%3D0%3Bdashed%3D0%3Balign%3Dcenter%3Bhtml%3D1%3Bshape%3Dmxgraph.mockup.containers.browserWindow%3BrSize%3D0%3BstrokeColor%3D%23666666%3BstrokeColor2%3D%23008cff%3BstrokeColor3%3D%23c4c4c4%3BmainText%3D%2C%3BrecursiveResize%3D0%3B%22%20vertex%3D%221%22%20parent%3D%221%22%3E%3CmxGeometry%20x%3D%22330%22%20y%3D%22130%22%20width%3D%22950%22%20height%3D%22840%22%20as%3D%22geometry%22%2F%3E%3C%2FmxCell%3E%3CmxCell%20id%3D%223%22%20value%3D%22Page%201%22%20style%3D%22strokeWidth%3D1%3Bshadow%3D0%3Bdashed%3D0%3Balign%3Dcenter%3Bhtml%3D1%3Bshape%3Dmxgraph.mockup.containers.anchor%3BfontSize%3D17%3BfontColor%3D%23666666%3Balign%3Dleft%3BwhiteSpace%3Dwrap%3B%22%20vertex%3D%221%22%20parent%3D%222%22%3E%3CmxGeometry%20x%3D%2260%22%20y%3D%2212%22%20width%3D%22110%22%20height%3D%2226%22%20as%3D%22geometry%22%2F%3E%3C%2FmxCell%3E%3CmxCell%20id%3D%224%22%20value%3D%22https%3A%2F%2Fwww.draw.io%22%20style%3D%22strokeWidth%3D1%3Bshadow%3D0%3Bdashed%3D0%3Balign%3Dcenter%3Bhtml%3D1%3Bshape%3Dmxgraph.mockup.containers.anchor%3BrSize%3D0%3BfontSize%3D17%3BfontColor%3D%23666666%3Balign%3Dleft%3B%22%20vertex%3D%221%22%20parent%3D%222%22%3E%3CmxGeometry%20x%3D%22130%22%20y%3D%2260%22%20width%3D%22250%22%20height%3D%2226%22%20as%3D%22geometry%22%2F%3E%3C%2FmxCell%3E%3CmxCell%20id%3D%225%22%20value%3D%22subscribe%22%20style%3D%22html%3D1%3Bshadow%3D0%3Bdashed%3D0%3Bshape%3Dmxgraph.bootstrap.rrect%3BrSize%3D5%3BstrokeColor%3Dnone%3BstrokeWidth%3D1%3BfillColor%3Dnone%3BfontColor%3D%230085FC%3BwhiteSpace%3Dwrap%3Balign%3Dcenter%3BverticalAlign%3Dmiddle%3BspacingLeft%3D0%3BfontStyle%3D0%3BfontSize%3D16%3Bspacing%3D5%3B%22%20vertex%3D%221%22%20parent%3D%222%22%3E%3CmxGeometry%20x%3D%2260%22%20y%3D%22160%22%20width%3D%2260%22%20height%3D%2240%22%20as%3D%22geometry%22%2F%3E%3C%2FmxCell%3E%3CmxCell%20id%3D%226%22%20value%3D%22%26lt%3Bfont%20style%3D%26quot%3Bfont-size%3A%2025px%3B%26quot%3B%26gt%3BBlog%20website%20title%26lt%3B%2Ffont%26gt%3B%22%20style%3D%22text%3Bhtml%3D1%3Balign%3Dcenter%3BverticalAlign%3Dmiddle%3BwhiteSpace%3Dwrap%3Brounded%3D0%3BstrokeWidth%3D5%3B%22%20vertex%3D%221%22%20parent%3D%222%22%3E%3CmxGeometry%20x%3D%22345%22%20y%3D%22160%22%20width%3D%22260%22%20height%3D%2240%22%20as%3D%22geometry%22%2F%3E%3C%2FmxCell%3E%3CmxCell%20id%3D%227%22%20value%3D%22%22%20style%3D%22html%3D1%3BverticalLabelPosition%3Dbottom%3Balign%3Dcenter%3BlabelBackgroundColor%3D%23ffffff%3BverticalAlign%3Dtop%3BstrokeWidth%3D2%3BstrokeColor%3D%230080F0%3Bshadow%3D0%3Bdashed%3D0%3Bshape%3Dmxgraph.ios7.icons.looking_glass%3B%22%20vertex%3D%221%22%20parent%3D%222%22%3E%3CmxGeometry%20x%3D%22820%22%20y%3D%22170%22%20width%3D%2230%22%20height%3D%2230%22%20as%3D%22geometry%22%2F%3E%3C%2FmxCell%3E%3CmxCell%20id%3D%228%22%20value%3D%22%22%20style%3D%22rounded%3D1%3BwhiteSpace%3Dwrap%3Bhtml%3D1%3B%22%20vertex%3D%221%22%20parent%3D%222%22%3E%3CmxGeometry%20x%3D%22170%22%20y%3D%22290%22%20width%3D%22240%22%20height%3D%22160%22%20as%3D%22geometry%22%2F%3E%3C%2FmxCell%3E%3CmxCell%20id%3D%229%22%20value%3D%22%22%20style%3D%22rounded%3D1%3BwhiteSpace%3Dwrap%3Bhtml%3D1%3B%22%20vertex%3D%221%22%20parent%3D%222%22%3E%3CmxGeometry%20x%3D%22580%22%20y%3D%22290%22%20width%3D%22240%22%20height%3D%22160%22%20as%3D%22geometry%22%2F%3E%3C%2FmxCell%3E%3C%2Froot%3E%3C%2FmxGraphModel%3E&lt;/span&gt;" style="rounded=1;whiteSpace=wrap;html=1;" parent="hXxf3Bxxnw7Oz5GumfO5-1" vertex="1">
          <mxGeometry x="630" y="270" width="240" height="190" as="geometry" />
        </mxCell>
        <mxCell id="hXxf3Bxxnw7Oz5GumfO5-34" value="" style="rounded=0;whiteSpace=wrap;html=1;" parent="hXxf3Bxxnw7Oz5GumfO5-1" vertex="1">
          <mxGeometry y="780" width="950" height="60" as="geometry" />
        </mxCell>
        <mxCell id="hXxf3Bxxnw7Oz5GumfO5-35" value="" style="dashed=0;outlineConnect=0;html=1;align=center;labelPosition=center;verticalLabelPosition=bottom;verticalAlign=top;shape=mxgraph.weblogos.youtube_2;fillColor=#FF2626;gradientColor=#B5171F" parent="hXxf3Bxxnw7Oz5GumfO5-1" vertex="1">
          <mxGeometry x="30" y="796.7" width="36.4" height="26.6" as="geometry" />
        </mxCell>
        <mxCell id="hXxf3Bxxnw7Oz5GumfO5-36" value="" style="dashed=0;outlineConnect=0;html=1;align=center;labelPosition=center;verticalLabelPosition=bottom;verticalAlign=top;shape=mxgraph.webicons.facebook;fillColor=#6294E4;gradientColor=#1A2665" parent="hXxf3Bxxnw7Oz5GumfO5-1" vertex="1">
          <mxGeometry x="80" y="795" width="32.4" height="30" as="geometry" />
        </mxCell>
        <mxCell id="hXxf3Bxxnw7Oz5GumfO5-37" value="footer text" style="text;html=1;align=center;verticalAlign=middle;whiteSpace=wrap;rounded=0;" parent="hXxf3Bxxnw7Oz5GumfO5-1" vertex="1">
          <mxGeometry x="445" y="800" width="60" height="30" as="geometry" />
        </mxCell>
        <mxCell id="4gr4AJvVroxB4wwy3Jba-2" value="&lt;h1 style=&quot;margin-top: 0px;&quot;&gt;About the author&lt;/h1&gt;&lt;p&gt;Lorem ipsum dolor sit amet, consectetur adipisicing elit, sed do eiusmod tempor incididunt ut labore et dolore magna aliqua.&lt;/p&gt;" style="text;html=1;whiteSpace=wrap;overflow=hidden;rounded=0;" parent="hXxf3Bxxnw7Oz5GumfO5-1" vertex="1">
          <mxGeometry x="640" y="305" width="230" height="120" as="geometry" />
        </mxCell>
        <mxCell id="4gr4AJvVroxB4wwy3Jba-3" value="&lt;div style=&quot;font-size: 20px;&quot;&gt;Archive&lt;/div&gt;&lt;ul style=&quot;font-size: 20px;&quot;&gt;&lt;li style=&quot;&quot;&gt;&lt;font style=&quot;font-size: 20px;&quot; color=&quot;#0066cc&quot;&gt;&lt;u&gt;Value 1&lt;/u&gt;&lt;/font&gt;&lt;/li&gt;&lt;li style=&quot;&quot;&gt;&lt;font style=&quot;font-size: 20px;&quot; color=&quot;#0066cc&quot;&gt;&lt;u&gt;Value 2&lt;/u&gt;&lt;/font&gt;&lt;/li&gt;&lt;li style=&quot;&quot;&gt;&lt;font style=&quot;font-size: 20px;&quot; color=&quot;#0066cc&quot;&gt;&lt;u style=&quot;&quot;&gt;Value 3&lt;/u&gt;&lt;/font&gt;&lt;/li&gt;&lt;/ul&gt;" style="text;strokeColor=none;fillColor=none;html=1;whiteSpace=wrap;verticalAlign=middle;overflow=hidden;" parent="hXxf3Bxxnw7Oz5GumfO5-1" vertex="1">
          <mxGeometry x="640" y="480" width="175" height="150" as="geometry" />
        </mxCell>
        <mxCell id="4gr4AJvVroxB4wwy3Jba-7" value="" style="line;strokeWidth=1;direction=south;html=1;" parent="hXxf3Bxxnw7Oz5GumfO5-1" vertex="1">
          <mxGeometry x="596.87" y="220" width="33.13" height="530" as="geometry" />
        </mxCell>
        <mxCell id="4gr4AJvVroxB4wwy3Jba-8" value="&lt;h1 style=&quot;margin-top: 0px;&quot;&gt;Blog post title&lt;/h1&gt;&lt;div&gt;11.11.2024&lt;/div&gt;&lt;p&gt;Lorem ipsum dolor sit amet, consectetur adipisicing elit, sed do eiusmod tempor incididunt ut labore et dolore magna aliqua.&lt;/p&gt;" style="text;html=1;whiteSpace=wrap;overflow=hidden;rounded=0;" parent="hXxf3Bxxnw7Oz5GumfO5-1" vertex="1">
          <mxGeometry x="50" y="260" width="530" height="120" as="geometry" />
        </mxCell>
        <mxCell id="4gr4AJvVroxB4wwy3Jba-9" value="&lt;h1 style=&quot;margin-top: 0px;&quot;&gt;&lt;font style=&quot;font-size: 18px;&quot;&gt;Section header&lt;/font&gt;&lt;/h1&gt;&lt;p&gt;Lorem ipsum dolor sit amet, consectetur adipisicing elit, sed do eiusmod tempor incididunt ut labore et dolore magna aliqua.&lt;/p&gt;" style="text;html=1;whiteSpace=wrap;overflow=hidden;rounded=0;" parent="hXxf3Bxxnw7Oz5GumfO5-1" vertex="1">
          <mxGeometry x="50" y="400" width="250" height="120" as="geometry" />
        </mxCell>
        <mxCell id="4gr4AJvVroxB4wwy3Jba-10" value="" style="sketch=0;outlineConnect=0;fontColor=#232F3E;gradientColor=none;fillColor=#ED7100;strokeColor=none;dashed=0;verticalLabelPosition=bottom;verticalAlign=top;align=center;html=1;fontSize=12;fontStyle=0;aspect=fixed;pointerEvents=1;shape=mxgraph.aws4.container_registry_image;" parent="hXxf3Bxxnw7Oz5GumfO5-1" vertex="1">
          <mxGeometry x="360" y="420" width="200" height="200" as="geometry" />
        </mxCell>
        <mxCell id="4gr4AJvVroxB4wwy3Jba-11" value="&lt;h1 style=&quot;margin-top: 0px;&quot;&gt;&lt;font style=&quot;font-size: 14px;&quot;&gt;Section header&lt;/font&gt;&lt;/h1&gt;&lt;p&gt;&lt;/p&gt;&lt;ul&gt;&lt;li&gt;Lorem ipsum dolor sit amet, consectetur adipisicing elit,&amp;nbsp;&lt;/li&gt;&lt;li&gt;sed do eiusmod tempor incididunt ut labore et dolore magna aliqua.&lt;/li&gt;&lt;/ul&gt;&lt;p&gt;&lt;/p&gt;" style="text;html=1;whiteSpace=wrap;overflow=hidden;rounded=0;" parent="hXxf3Bxxnw7Oz5GumfO5-1" vertex="1">
          <mxGeometry x="50" y="520" width="250" height="120" as="geometry" />
        </mxCell>
        <mxCell id="x8TIC1PH0LqgHpV6CRWg-1" value="&lt;div style=&quot;font-size: 20px;&quot;&gt;&lt;font style=&quot;font-size: 20px;&quot;&gt;Similar Articles&lt;/font&gt;&lt;/div&gt;&lt;ul style=&quot;font-size: 20px;&quot;&gt;&lt;li style=&quot;&quot;&gt;&lt;font style=&quot;font-size: 20px;&quot; color=&quot;#0066cc&quot;&gt;&lt;u&gt;Value 1&lt;/u&gt;&lt;/font&gt;&lt;/li&gt;&lt;li style=&quot;&quot;&gt;&lt;font style=&quot;font-size: 20px;&quot; color=&quot;#0066cc&quot;&gt;&lt;u&gt;Value 2&lt;/u&gt;&lt;/font&gt;&lt;/li&gt;&lt;li style=&quot;&quot;&gt;&lt;font style=&quot;font-size: 20px;&quot; color=&quot;#0066cc&quot;&gt;&lt;u style=&quot;&quot;&gt;Value 3&lt;/u&gt;&lt;/font&gt;&lt;/li&gt;&lt;/ul&gt;" style="text;strokeColor=none;fillColor=none;html=1;whiteSpace=wrap;verticalAlign=middle;overflow=hidden;" parent="hXxf3Bxxnw7Oz5GumfO5-1" vertex="1">
          <mxGeometry x="640" y="610" width="175" height="150" as="geometry" />
        </mxCell>
        <mxCell id="x8TIC1PH0LqgHpV6CRWg-2" value="Back to home" style="html=1;shadow=0;dashed=0;shape=mxgraph.bootstrap.rrect;rSize=5;strokeColor=none;strokeWidth=1;fillColor=none;fontColor=#0085FC;whiteSpace=wrap;align=center;verticalAlign=middle;spacingLeft=0;fontStyle=0;fontSize=16;spacing=5;" parent="hXxf3Bxxnw7Oz5GumfO5-1" vertex="1">
          <mxGeometry x="18" y="740" width="132" height="40" as="geometry" />
        </mxCell>
      </root>
    </mxGraphModel>
  </diagram>
</mxfile>
